<?xml version="1.0" encoding="utf-8"?>
<!-- Generator: Adobe Illustrator 17.1.0, SVG Export Plug-In . SVG Version: 6.00 Build 0)  -->
<!DOCTYPE svg PUBLIC "-//W3C//DTD SVG 1.1//EN" "http://www.w3.org/Graphics/SVG/1.1/DTD/svg11.dtd">
<svg version="1.1" id="Layer_3" xmlns="http://www.w3.org/2000/svg" xmlns:xlink="http://www.w3.org/1999/xlink" x="0px" y="0px"
	 viewBox="0 0 69 81" enable-background="new 0 0 69 81" xml:space="preserve">
<g>
	<path fill="#105889" d="M8.3,57.2c0,0,9.7,7.4,26.2,7.4s25.1-7.4,25.1-7.4l-2.9,16.7c0,0-5.4,7.1-22.7,7.1s-23-7-23-7L8.3,57.2z"/>
	<g>
		<path fill="#105889" d="M34.1,0C3.6,0,0,10.1,0,10.1c2.7,25,5.6,37,5.6,37s8.5,10.6,29.9,10.6c21.4,0,26.9-9,26.9-9
			c4-19.4,6.5-38.6,6.5-38.6S64.6,0,34.1,0z M34.1,49.9c-6.4,0-11.5-5.2-11.5-11.5c0-6.4,5.2-11.5,11.5-11.5
			c6.4,0,11.5,5.2,11.5,11.5C45.6,44.7,40.5,49.9,34.1,49.9z M34.1,15C21.9,15,12,12.9,12,10.3c0-2.6,9.9-4.7,22.2-4.7
			c12.2,0,22.2,2.1,22.2,4.7C56.3,12.9,46.4,15,34.1,15z"/>
		<path fill="#105889" d="M34.1,32.8c-3.1,0-5.5,2.5-5.5,5.5s2.5,5.5,5.5,5.5s5.5-2.5,5.5-5.5S37.2,32.8,34.1,32.8z"/>
	</g>
</g>
</svg>
