<?xml version="1.0" encoding="utf-8"?>
<!-- Generator: Adobe Illustrator 17.1.0, SVG Export Plug-In . SVG Version: 6.00 Build 0)  -->
<!DOCTYPE svg PUBLIC "-//W3C//DTD SVG 1.1//EN" "http://www.w3.org/Graphics/SVG/1.1/DTD/svg11.dtd">
<svg version="1.1" id="Layer_1" xmlns="http://www.w3.org/2000/svg" xmlns:xlink="http://www.w3.org/1999/xlink" x="0px" y="0px"
	 viewBox="0 0 33.4 45.6" enable-background="new 0 0 33.4 45.6" xml:space="preserve">
<g id="g14">
	<g id="g20">
		<g>
			<path fill="#FFFFFF" d="M18.9,0.2H2.2c-1.1,0-1.9,0.9-1.9,1.9v41.2c0,1.1,0.9,1.9,1.9,1.9h29.1c1.1,0,1.9-0.9,1.9-1.9V14.5
				L18.9,0.2z M11.2,34.1H7.2V36h3.4v1.4H7.2v3.4H5.5v-8.1h5.7V34.1z M18.2,34.1h-2.4v6.6H14v-6.6h-2.4v-1.5h6.6V34.1z M25.4,36.1
				c-0.1,0.3-0.3,0.6-0.5,0.8c-0.2,0.2-0.5,0.4-0.9,0.6c-0.4,0.1-0.8,0.2-1.3,0.2h-1.9v2.9h-1.8v-8.1h3.7c0.5,0,0.9,0.1,1.3,0.2
				c0.4,0.1,0.6,0.3,0.9,0.6c0.2,0.2,0.4,0.5,0.5,0.8c0.1,0.3,0.2,0.6,0.2,1C25.6,35.5,25.5,35.8,25.4,36.1z"/>
			<path fill="#FFFFFF" d="M23.4,34.2c-0.1-0.1-0.3-0.1-0.5-0.2c-0.2,0-0.4,0-0.6,0h-1.4v2.4h1.4c0.2,0,0.4,0,0.6,0
				c0.2,0,0.4-0.1,0.5-0.2c0.1-0.1,0.3-0.2,0.3-0.4c0.1-0.2,0.1-0.4,0.1-0.6c0-0.3,0-0.5-0.1-0.6S23.5,34.3,23.4,34.2z"/>
		</g>
		<g id="g28">
			<g id="g30">
				<path id="path32" fill="#BBD8E5" d="M18.9,0.2l14.3,14.3H20.8c-1.1,0-1.9-0.9-1.9-1.9V0.2z"/>
			</g>
		</g>
	</g>
</g>
</svg>
