<?xml version="1.0" encoding="utf-8"?>
<!-- Generator: Adobe Illustrator 17.1.0, SVG Export Plug-In . SVG Version: 6.00 Build 0)  -->
<!DOCTYPE svg PUBLIC "-//W3C//DTD SVG 1.1//EN" "http://www.w3.org/Graphics/SVG/1.1/DTD/svg11.dtd">
<svg version="1.1" id="Layer_1" xmlns="http://www.w3.org/2000/svg" xmlns:xlink="http://www.w3.org/1999/xlink" x="0px" y="0px"
	 viewBox="0 0 14 12" enable-background="new 0 0 14 12" xml:space="preserve">
<g>
	<g>
		<path d="M9.4,7c0.3,0,0.5,0.1,0.7,0.4c0.2,0.3,0.3,0.6,0.3,1c0,0.4-0.1,0.7-0.3,1C9.9,9.6,9.7,9.8,9.4,9.8c-0.3,0-0.5-0.1-0.7-0.4
			c-0.2-0.3-0.3-0.6-0.3-1c0-0.4,0.1-0.7,0.3-1C8.9,7.2,9.2,7,9.4,7 M12.9,3.5c0.7,0.8,1.1,1.8,1.1,3c0,0.7-0.1,1.4-0.3,2
			c-0.2,0.6-0.4,1.1-0.7,1.5c-0.3,0.4-0.6,0.7-1,1c-0.4,0.3-0.7,0.5-1.1,0.6c-0.3,0.1-0.7,0.2-1.1,0.3C9.5,11.9,9.2,11.9,9,12
			c-0.2,0-0.4,0-0.7,0c-0.1,0-0.2,0-0.5,0c-0.3,0-0.6,0-0.8,0s-0.5,0-0.8,0c-0.3,0-0.5,0-0.5,0c-0.2,0-0.5,0-0.7,0
			c-0.2,0-0.5-0.1-0.9-0.1c-0.4-0.1-0.8-0.2-1.1-0.3c-0.3-0.1-0.7-0.3-1.1-0.6c-0.4-0.3-0.7-0.6-1-1C0.7,9.5,0.4,9.1,0.3,8.5
			C0.1,7.9,0,7.2,0,6.4c0-1.2,0.4-2.1,1.1-3C1,3.4,1,3,1.1,2.3c0.1-0.8,0.2-1.5,0.5-2.1c0.9,0.1,2.1,0.6,3.5,1.6
			C5.5,1.6,6.2,1.5,7,1.5c0.9,0,1.5,0.1,1.9,0.2c0.6-0.4,1.2-0.8,1.8-1c0.6-0.3,1-0.4,1.3-0.5l0.4-0.1c0.3,0.6,0.4,1.4,0.5,2.1
			C13,3,13,3.4,12.9,3.5 M7,11.3c1.7,0,3-0.2,3.8-0.6c0.9-0.4,1.3-1.2,1.3-2.5c0-0.7-0.3-1.3-0.8-1.8c-0.3-0.3-0.6-0.4-1-0.5
			c-0.4-0.1-0.9-0.1-1.7,0C7.8,5.9,7.3,6,7,6C6.6,6,6.2,6,5.7,5.9c-0.5,0-0.9-0.1-1.2-0.1c-0.3,0-0.6,0-1,0.1C3.2,6,2.9,6.2,2.7,6.4
			C2.2,6.8,1.9,7.4,1.9,8.2c0,1.3,0.4,2.1,1.3,2.5C4,11.1,5.3,11.3,7,11.3L7,11.3 M4.6,7c0.3,0,0.5,0.1,0.7,0.4
			c0.2,0.3,0.3,0.6,0.3,1c0,0.4-0.1,0.7-0.3,1C5.1,9.6,4.9,9.8,4.6,9.8c-0.3,0-0.5-0.1-0.7-0.4c-0.2-0.3-0.3-0.6-0.3-1
			c0-0.4,0.1-0.7,0.3-1C4.1,7.2,4.3,7,4.6,7"/>
	</g>
</g>
</svg>
