<?xml version="1.0" encoding="utf-8"?>
<!-- Generator: Adobe Illustrator 17.1.0, SVG Export Plug-In . SVG Version: 6.00 Build 0)  -->
<!DOCTYPE svg PUBLIC "-//W3C//DTD SVG 1.1//EN" "http://www.w3.org/Graphics/SVG/1.1/DTD/svg11.dtd">
<svg version="1.1" id="Layer_2" xmlns="http://www.w3.org/2000/svg" xmlns:xlink="http://www.w3.org/1999/xlink" x="0px" y="0px"
	 viewBox="0 0 35.9 35.8" enable-background="new 0 0 35.9 35.8" xml:space="preserve">
<g>
	<g>
		<path fill="#004F72" d="M19.7,4c6.9,0.9,12.2,6.7,12.2,13.8c0,2-0.4,3.9-1.2,5.6l3.5,2c1.1-2.3,1.7-4.9,1.7-7.6
			c0-9.3-7.1-17-16.2-17.9V4z"/>
		<path fill="#004F72" d="M28.7,26.7c-2.6,3.1-6.4,5.1-10.8,5.1c-4.3,0-8.1-1.9-10.6-4.9l-3,2.6c3.3,3.9,8.2,6.3,13.7,6.3
			c5.8,0,11-2.8,14.2-7.1L28.7,26.7z"/>
		<path fill="#004F72" d="M5.2,23.5C4.4,21.8,4,19.9,4,17.9c0-7,5.1-12.7,11.8-13.8V0C6.9,1.1,0,8.7,0,17.9c0,3,0.8,5.9,2.1,8.4
			L5.2,23.5z"/>
	</g>
	<g>
		<path fill="#004F72" d="M16.8,25.7c-3.9-0.5-7-3.9-7-7.9c0-1.1,0.2-2.2,0.7-3.2l-2-1.1c-0.6,1.3-1,2.8-1,4.3
			c0,5.3,4.1,9.7,9.3,10.2V25.7z"/>
		<path fill="#004F72" d="M11.6,12.7c1.5-1.8,3.7-2.9,6.2-2.9c2.4,0,4.6,1.1,6.1,2.8l1.7-1.5c-1.9-2.2-4.7-3.6-7.8-3.6
			c-3.3,0-6.3,1.6-8.2,4.1L11.6,12.7z"/>
		<path fill="#004F72" d="M25.1,14.6c0.4,1,0.7,2.1,0.7,3.3c0,4-2.9,7.3-6.8,7.9V28c5.1-0.6,9.1-4.9,9.1-10.2c0-1.7-0.4-3.4-1.2-4.8
			L25.1,14.6z"/>
	</g>
	<circle fill="#004F72" cx="17.6" cy="17.8" r="4"/>
</g>
</svg>
